<svg xmlns="http://www.w3.org/2000/svg" width="616" height="364" viewBox="0 0 616 364">
<g>
<path d="M 35.71 349.61 C30.56,348.01 25.45,343.75 23.29,339.24 C20.92,334.29 20.91,321.82 23.28,317.34 C27.17,310.01 37.51,305.10 45.89,306.61 C52.47,307.80 59.17,312.16 61.10,316.50 C61.59,317.60 62.54,319.27 63.21,320.20 C64.88,322.53 63.89,323.21 57.94,323.78 C53.23,324.23 52.63,324.04 50.02,321.18 C46.48,317.31 42.51,316.20 39.08,318.13 C35.27,320.27 33.86,323.74 34.30,329.92 C34.62,334.30 35.21,335.79 37.40,337.67 C38.89,338.95 41.01,340.00 42.11,340.00 C45.17,340.00 49.78,337.25 50.50,335.01 C51.04,333.29 52.00,333.00 57.10,333.00 C63.59,333.00 65.54,334.61 62.60,337.55 C61.72,338.42 61.00,339.75 61.00,340.49 C61.00,342.80 53.11,348.74 48.50,349.90 C43.23,351.22 40.71,351.17 35.71,349.61 ZM 118.70 349.84 C116.62,349.26 113.41,347.37 111.59,345.64 C107.33,341.62 106.00,335.64 106.00,320.57 C106.00,307.57 106.46,306.71 113.18,307.19 L 117.50 307.50 L 118.00 321.65 C118.43,333.72 118.78,336.11 120.40,337.90 C123.92,341.77 131.75,339.95 132.13,335.18 C132.21,334.26 132.16,328.49 132.03,322.38 C131.73,308.27 132.40,306.78 138.81,307.20 L 143.50 307.50 L 143.77 323.57 C144.03,338.86 143.94,339.79 141.77,342.98 C137.57,349.17 127.26,352.24 118.70,349.84 ZM 199.22 349.53 C192.85,347.54 190.34,345.52 187.02,339.73 C184.99,336.19 184.02,333.13 184.01,330.25 C184.00,325.77 183.09,324.98 180.95,327.57 C179.87,328.86 179.94,329.63 181.39,332.07 C182.54,334.03 183.19,337.46 183.31,342.26 L 183.50 349.50 L 178.87 349.80 C172.76,350.20 171.00,348.44 171.00,341.96 C171.00,336.52 169.51,335.00 164.19,335.00 C159.94,335.00 158.64,337.09 159.46,342.55 C159.91,345.56 159.73,347.62 158.95,348.56 C157.45,350.36 149.64,350.47 148.18,348.72 C147.51,347.92 147.09,340.25 147.05,328.26 C146.97,305.03 145.84,306.51 163.07,307.22 C176.73,307.79 181.05,309.59 183.01,315.54 C183.64,317.44 184.53,319.00 184.98,319.00 C185.43,319.00 186.73,317.43 187.86,315.51 C190.44,311.14 194.93,308.36 201.72,306.95 C211.32,304.96 220.95,309.55 225.82,318.44 L 227.50 321.50 L 227.79 315.50 C228.11,308.76 229.50,306.99 234.44,307.02 C239.59,307.04 240.36,308.16 240.44,315.67 L 240.50 322.50 L 247.50 322.50 L 254.50 322.50 L 254.80 315.53 C255.13,307.97 255.77,307.04 260.67,307.02 C267.23,306.98 267.00,306.20 267.00,328.50 C267.00,350.67 267.19,350.00 261.00,350.00 C255.43,350.00 255.00,349.39 255.00,341.52 L 255.00 334.26 L 248.92 333.57 C240.62,332.63 239.61,333.57 240.26,341.64 C240.56,345.41 240.33,348.27 239.68,348.92 C238.22,350.38 230.69,350.29 229.20,348.80 C228.54,348.14 228.00,344.99 228.00,341.80 C228.00,335.95 226.71,334.04 225.64,338.30 C224.73,341.91 218.24,347.73 213.21,349.44 C207.77,351.30 204.94,351.32 199.22,349.53 ZM 212.63 336.43 C215.82,333.04 216.31,332.87 221.75,333.13 L 227.50 333.40 L 227.80 328.29 L 228.10 323.18 L 222.30 323.70 C216.70,324.20 216.37,324.09 212.80,320.61 C205.58,313.57 197.00,317.86 197.00,328.50 C197.00,339.11 205.87,343.60 212.63,336.43 ZM 169.80 324.80 C170.46,324.14 171.00,322.65 171.00,321.50 C171.00,318.31 169.04,317.00 164.30,317.00 L 160.00 317.00 L 160.00 321.50 L 160.00 326.00 L 164.30 326.00 C166.66,326.00 169.14,325.46 169.80,324.80 ZM 296.34 349.57 C286.23,346.40 281.56,339.74 281.56,328.50 C281.56,316.48 287.18,309.43 298.73,306.96 C308.70,304.83 319.31,309.93 323.20,318.72 C324.24,321.07 325.52,323.00 326.05,323.00 C326.57,323.00 327.00,319.94 327.00,316.20 C327.00,312.24 327.50,308.90 328.20,308.20 C329.02,307.38 333.90,307.00 343.65,307.00 C359.64,307.00 359.83,307.09 359.17,313.98 L 358.79 318.00 L 350.02 318.00 C343.56,318.00 340.93,318.38 340.04,319.46 C337.90,322.03 339.94,323.00 347.48,323.00 C357.42,323.00 358.00,323.31 358.00,328.59 C358.00,332.46 357.70,333.04 355.40,333.61 C353.98,333.97 350.26,334.00 347.15,333.67 C344.03,333.35 340.95,333.41 340.29,333.82 C339.59,334.26 338.97,337.62 338.80,342.03 L 338.50 349.50 L 334.18 349.81 C328.00,350.26 327.00,349.01 327.00,340.88 C327.00,337.09 326.57,334.00 326.05,334.00 C325.52,334.00 324.22,335.96 323.16,338.36 C320.86,343.57 315.75,347.90 309.82,349.68 C304.51,351.27 301.70,351.24 296.34,349.57 ZM 308.34 337.95 C314.00,333.49 313.97,323.49 308.29,319.02 C302.01,314.08 294.00,319.39 294.00,328.50 C294.00,337.93 301.82,343.08 308.34,337.95 ZM 385.84 349.51 C379.99,347.36 377.10,345.03 374.24,340.14 C372.00,336.33 371.56,334.39 371.59,328.53 C371.64,316.76 376.18,310.46 386.85,307.35 C391.39,306.04 393.27,305.95 397.30,306.88 C404.69,308.59 408.82,311.80 412.57,318.76 C414.80,322.90 413.71,323.96 407.19,323.98 C403.70,324.00 402.38,323.45 400.19,321.07 C393.37,313.65 384.00,317.95 384.00,328.50 C384.00,339.00 392.92,343.62 399.44,336.50 C402.38,333.29 403.11,333.00 408.32,333.00 C414.65,333.00 415.31,333.95 412.32,338.79 C408.82,344.44 404.53,348.06 399.60,349.53 C393.63,351.30 390.68,351.29 385.84,349.51 ZM 520.75 349.86 C516.91,348.78 512.78,345.44 509.79,341.00 L 508.10 338.50 L 508.05 343.68 C507.99,349.92 508.33,349.77 493.70,349.83 C483.08,349.88 482.89,349.84 481.95,347.38 C481.43,346.00 481.00,343.11 481.00,340.97 C481.00,336.33 478.84,334.72 473.21,335.19 L 469.50 335.50 L 469.00 342.50 L 468.50 349.50 L 463.91 349.80 C460.99,349.99 458.99,349.63 458.41,348.80 C457.89,348.06 457.72,338.85 458.00,327.50 L 458.50 307.50 L 469.50 307.53 C488.87,307.59 491.90,309.16 492.25,319.33 C492.42,324.50 492.08,326.25 490.58,327.91 C488.75,329.94 488.75,330.06 490.52,332.02 C491.90,333.55 492.30,335.43 492.15,339.77 C491.94,346.09 492.97,348.61 495.38,347.69 C496.73,347.17 497.00,344.24 497.23,327.29 L 497.50 307.50 L 502.00 307.50 L 506.50 307.50 L 506.78 322.75 C507.04,337.26 507.15,338.00 509.06,338.00 C510.16,338.00 511.32,337.33 511.64,336.50 C512.01,335.54 513.55,335.00 515.92,335.00 C518.88,335.00 520.07,335.61 521.84,338.00 C523.64,340.43 524.79,341.00 527.91,341.00 C535.00,341.00 536.16,335.60 529.30,334.50 C520.83,333.15 516.61,331.54 513.56,328.50 C510.50,325.44 510.42,325.12 511.00,319.04 C511.49,313.91 512.08,312.32 514.22,310.49 C520.46,305.12 534.53,305.21 541.01,310.66 C544.21,313.36 544.01,313.46 545.56,308.25 C545.84,307.32 550.07,307.00 562.28,307.00 C581.18,307.00 582.32,307.38 581.82,313.54 L 581.50 317.50 L 575.50 318.00 L 569.50 318.50 L 569.00 334.00 L 568.50 349.50 L 565.11 349.82 C563.25,350.00 560.67,349.88 559.39,349.56 C557.08,348.98 557.05,348.77 556.78,333.74 L 556.50 318.50 L 551.61 318.19 C548.92,318.02 546.24,318.36 545.66,318.94 C545.08,319.52 542.32,320.00 539.54,320.00 C535.52,320.00 534.22,319.58 533.20,317.94 C532.17,316.30 531.07,315.95 527.71,316.19 C523.99,316.46 523.46,316.81 523.19,319.16 C522.85,322.11 522.74,322.05 532.74,324.03 C540.94,325.66 545.93,329.78 546.63,335.50 C547.26,340.65 544.53,345.77 539.86,348.19 C535.58,350.41 525.76,351.27 520.75,349.86 ZM 479.07 324.96 C481.23,323.81 481.64,320.04 479.80,318.20 C479.14,317.54 476.67,317.00 474.30,317.00 L 470.00 317.00 L 470.00 321.50 C470.00,325.99 470.01,326.00 473.57,326.00 C475.53,326.00 478.00,325.53 479.07,324.96 ZM 66.24 348.84 C65.34,347.94 65.00,342.39 65.00,328.42 C65.00,306.77 65.03,306.67 72.18,307.19 L 76.50 307.50 L 77.00 315.00 L 77.50 322.50 L 84.50 322.50 L 91.50 322.50 L 92.00 315.00 L 92.50 307.50 L 96.82 307.19 C104.07,306.67 104.10,306.76 103.88,328.66 C103.74,342.92 103.36,348.29 102.42,349.07 C101.72,349.65 99.20,349.98 96.82,349.81 L 92.50 349.50 L 92.20 342.54 C92.03,338.71 91.42,335.00 90.83,334.29 C89.66,332.89 80.31,332.52 78.30,333.79 C77.59,334.25 76.97,337.61 76.80,342.03 L 76.50 349.50 L 71.99 349.79 C69.36,349.97 66.97,349.57 66.24,348.84 ZM 416.68 349.29 C415.68,347.67 415.00,323.29 415.74,315.50 L 416.50 307.50 L 421.50 307.50 L 426.50 307.50 L 427.00 315.00 L 427.50 322.50 L 434.50 322.50 L 441.50 322.50 L 442.00 315.00 L 442.50 307.50 L 446.82 307.19 C453.97,306.67 454.00,306.76 454.00,328.50 C454.00,350.24 453.97,350.33 446.82,349.81 L 442.50 349.50 L 442.21 341.80 C441.87,332.92 441.62,332.70 433.00,333.80 L 427.50 334.50 L 427.00 342.00 L 426.50 349.50 L 421.84 349.80 C419.28,349.97 416.96,349.74 416.68,349.29 ZM 20.41 290.63 C20.12,289.87 26.69,271.76 35.01,250.38 C65.80,171.20 74.29,149.33 93.96,98.50 C121.85,26.45 123.32,22.83 125.26,21.61 C127.83,19.98 130.21,23.08 133.98,33.00 C135.76,37.67 139.23,46.67 141.69,53.00 C144.15,59.33 147.87,69.00 149.96,74.50 C155.46,89.02 158.22,94.98 159.17,94.40 C159.63,94.11 160.00,92.86 160.00,91.60 C160.00,90.35 160.90,85.80 162.00,81.50 C167.73,59.10 180.49,45.14 201.58,38.22 C227.70,29.64 255.78,35.66 273.65,53.66 C277.58,57.62 281.07,60.60 281.40,60.27 C281.73,59.94 282.00,54.84 282.00,48.94 C282.00,40.08 282.28,38.11 283.58,37.61 C285.65,36.81 390.35,36.81 392.42,37.61 C393.71,38.10 394.00,40.01 394.00,48.11 C394.00,58.37 394.84,60.14 397.39,55.22 C399.33,51.45 407.82,43.64 412.64,41.18 C418.00,38.45 425.89,36.32 435.92,34.91 C449.91,32.93 469.92,36.35 480.62,42.55 C490.34,48.17 498.65,61.32 499.25,72.00 L 499.50 76.50 L 483.23 76.77 L 466.97 77.05 L 465.98 74.27 C462.90,65.61 458.93,62.89 448.38,62.21 C442.87,61.86 439.83,62.18 436.47,63.46 C426.69,67.19 426.65,78.32 436.40,82.39 C438.17,83.13 446.17,84.92 454.18,86.36 C477.94,90.63 488.09,94.86 496.13,103.81 C501.87,110.20 504.43,117.37 504.42,127.00 C504.38,149.01 490.21,163.58 465.00,167.54 C462.52,167.93 460.17,168.75 459.77,169.37 C459.36,169.99 459.02,185.24 459.02,203.25 L 459.00 236.00 L 466.30 236.00 C470.64,236.00 474.09,236.49 474.80,237.20 C476.15,238.55 476.51,262.65 475.21,264.70 C474.75,265.41 471.39,266.03 466.97,266.20 L 459.50 266.50 L 459.22 279.25 L 458.94 292.00 L 441.00 292.00 L 423.06 292.00 L 422.78 279.25 L 422.50 266.50 L 393.00 266.00 L 363.50 265.50 L 363.23 248.86 L 362.95 232.22 L 389.95 199.36 C404.80,181.29 416.96,165.82 416.97,164.99 C416.99,164.15 415.14,162.67 412.87,161.68 C407.07,159.17 397.80,149.99 394.78,143.75 C391.84,137.70 389.44,127.91 390.33,125.59 C390.85,124.22 393.33,124.00 407.84,124.00 L 424.74 124.00 L 425.37 127.92 C426.13,132.64 430.20,137.77 434.67,139.64 C436.64,140.46 441.66,141.00 447.35,141.00 C461.54,141.00 467.00,137.90 467.00,129.83 C467.00,122.17 463.01,120.20 439.14,116.06 C424.66,113.55 416.65,110.86 409.11,105.99 C398.86,99.37 393.46,89.97 392.30,76.75 L 391.71 70.00 L 373.86 70.00 L 356.02 70.00 L 355.76 117.75 L 355.50 165.50 L 337.76 165.77 L 320.02 166.05 L 319.76 118.27 L 319.50 70.50 L 302.75 70.23 C283.74,69.91 284.90,69.28 287.40,78.66 C288.39,82.38 288.47,84.13 287.69,84.91 C286.45,86.15 255.21,86.44 253.38,85.23 C252.77,84.83 251.31,82.61 250.14,80.31 C245.04,70.24 235.96,65.42 223.58,66.21 C207.35,67.25 198.82,77.63 197.29,98.20 C196.31,111.49 199.74,123.33 206.63,130.43 C211.60,135.54 215.81,137.00 225.66,137.00 C232.61,137.00 234.91,136.57 238.93,134.53 C244.49,131.72 249.48,126.18 251.11,121.03 C251.72,119.09 252.93,116.94 253.80,116.25 C256.12,114.42 286.33,114.49 287.86,116.33 C289.30,118.06 286.11,129.86 282.01,137.99 C278.84,144.27 269.82,154.69 265.60,156.95 C261.17,159.32 262.35,161.00 268.43,161.00 C287.98,161.00 306.40,170.89 312.77,184.80 C317.96,196.14 316.59,212.48 309.53,223.51 C303.81,232.47 294.55,238.40 269.64,249.09 C258.29,253.95 253.75,257.27 254.20,260.38 C254.50,262.47 254.87,262.51 285.50,263.00 L 316.50 263.50 L 316.50 277.50 L 316.50 291.50 L 248.62 291.50 L 180.73 291.50 L 171.38 265.00 C158.96,229.82 158.91,229.69 157.90,230.70 C157.42,231.18 156.15,235.00 155.08,239.18 C151.52,253.12 143.14,266.40 131.69,276.27 C125.67,281.46 120.71,285.00 119.45,285.00 C119.12,285.00 121.24,282.49 124.17,279.43 C130.14,273.18 135.00,266.40 135.00,264.31 C135.00,263.55 135.79,261.73 136.75,260.26 C138.09,258.21 138.50,255.48 138.50,248.54 C138.50,240.59 138.16,238.86 135.71,234.22 C130.68,224.65 120.79,216.63 111.26,214.39 C104.62,212.82 102.97,212.73 101.26,213.82 C100.58,214.25 96.90,223.58 93.09,234.55 C77.06,280.62 73.87,289.45 72.84,290.69 C71.21,292.66 21.17,292.60 20.41,290.63 ZM 222.24 245.75 C229.81,235.83 240.01,229.03 256.09,223.19 C269.51,218.32 274.87,215.33 277.71,211.10 C281.66,205.24 280.19,196.48 274.69,193.04 C271.11,190.80 260.85,190.50 256.63,192.51 C252.38,194.52 251.08,196.52 249.49,203.50 L 248.35 208.50 L 231.42 208.50 L 214.50 208.50 L 214.19 204.71 C213.42,195.42 218.93,181.22 225.88,174.55 C228.15,172.37 230.00,170.28 230.00,169.90 C230.00,169.51 227.32,169.20 224.04,169.20 C210.87,169.20 198.17,165.71 188.25,159.38 C185.36,157.53 183.00,156.42 183.00,156.90 C183.00,157.66 186.37,166.55 200.46,203.00 C202.48,208.23 204.52,213.40 205.00,214.50 C205.47,215.60 208.68,223.81 212.12,232.75 C215.56,241.69 218.68,249.00 219.07,249.00 C219.45,249.00 220.88,247.54 222.24,245.75 ZM 423.77 217.66 C423.95,206.31 423.69,199.94 423.07,200.16 C421.85,200.58 394.03,234.20 394.01,235.28 C394.01,235.70 400.64,235.93 408.75,235.78 L 423.50 235.50 L 423.77 217.66 ZM 114.55 205.00 C117.53,205.00 123.09,205.54 126.91,206.19 C135.51,207.67 138.43,206.62 140.67,201.25 C143.58,194.29 142.95,185.74 138.66,174.00 C136.55,168.23 133.12,158.77 131.04,153.00 C128.95,147.23 126.90,142.59 126.48,142.70 C126.06,142.81 123.79,148.44 121.44,155.20 C119.09,161.97 114.20,175.97 110.58,186.33 C106.96,196.69 104.00,205.56 104.00,206.06 C104.00,206.56 105.12,206.53 106.57,205.98 C107.98,205.44 111.57,205.00 114.55,205.00 ZM 322.23 275.25 L 322.50 258.50 L 339.43 258.23 C348.73,258.07 356.76,258.36 357.25,258.85 C358.37,259.97 359.53,285.74 358.62,289.36 L 357.96 292.00 L 339.96 292.00 L 321.95 292.00 L 322.23 275.25 ZM 478.04 280.76 C478.10,261.48 482.00,250.78 492.92,240.00 C500.29,232.72 508.76,227.86 522.43,223.06 C539.72,217.00 545.00,212.55 545.00,204.08 C545.00,194.87 540.28,191.00 529.03,191.00 C522.46,191.00 521.73,191.22 518.42,194.25 C515.67,196.77 514.75,198.51 514.32,202.00 C514.02,204.48 513.06,207.06 512.19,207.75 C510.35,209.22 482.36,209.52 480.12,208.10 C478.30,206.94 479.31,197.77 482.17,189.41 C488.12,172.05 503.25,162.48 526.70,161.25 C562.02,159.40 584.41,178.62 580.18,207.15 C577.54,224.92 567.10,235.43 541.54,246.04 C523.37,253.59 518.43,256.82 519.18,260.68 C519.50,262.38 521.54,262.53 550.51,263.00 L 581.50 263.50 L 581.50 277.50 L 581.50 291.50 L 529.75 291.76 L 478.00 292.02 L 478.04 280.76 ZM 133.69 260.36 C133.31,259.98 132.99,258.05 132.98,256.08 C132.94,250.52 129.69,244.49 125.09,241.44 C121.62,239.14 120.24,238.82 115.67,239.19 C112.26,239.48 109.15,240.47 107.10,241.93 C105.33,243.19 103.60,243.94 103.26,243.59 C102.28,242.61 106.27,237.79 110.81,234.50 C115.53,231.07 116.57,228.62 115.03,224.57 C114.43,223.00 114.14,221.52 114.39,221.28 C115.39,220.27 123.75,224.99 127.23,228.51 C132.96,234.32 135.31,240.09 135.81,249.58 C136.21,257.23 135.28,261.95 133.69,260.36 ZM 129.38 257.24 C128.76,255.57 127.03,253.41 125.53,252.43 C123.24,250.92 122.30,250.82 119.72,251.80 C116.15,253.15 115.18,252.69 116.98,250.52 C117.97,249.33 117.98,248.69 117.04,247.54 C115.77,246.02 116.39,244.00 118.13,244.00 C118.68,244.00 118.85,244.90 118.50,246.00 C118.14,247.15 118.32,248.00 118.93,248.00 C119.52,248.00 120.00,247.10 120.00,246.00 C120.00,243.43 124.05,243.27 126.22,245.75 C129.07,249.00 131.12,254.11 130.81,257.19 L 130.50 260.26 L 129.38 257.24 ZM 321.80 221.99 C321.63,213.18 321.65,205.53 321.83,204.99 C322.04,204.39 329.16,204.00 339.98,204.00 C355.29,204.00 357.87,204.22 358.39,205.58 C359.19,207.67 359.17,224.07 358.36,231.85 L 357.72 238.00 L 339.91 238.00 L 322.10 238.00 L 321.80 221.99 ZM 105.38 229.56 C103.63,224.98 108.78,221.85 111.06,226.11 C112.06,227.98 111.96,228.56 110.44,229.67 C108.07,231.40 106.08,231.36 105.38,229.56 ZM 517.00 146.08 C517.00,145.55 519.91,142.73 523.46,139.81 C528.46,135.70 529.82,134.02 529.48,132.39 C529.21,131.11 529.82,129.57 531.02,128.49 C533.88,125.89 533.50,123.37 530.06,122.17 C527.77,121.37 526.87,120.22 525.99,116.97 C524.55,111.62 525.08,110.41 529.66,108.50 C533.17,107.03 533.71,107.06 538.14,108.97 C544.95,111.89 547.56,111.61 551.44,107.50 C553.47,105.34 555.68,104.00 557.20,104.00 L 559.65 104.00 L 557.68 110.04 L 555.70 116.07 L 558.60 119.14 C562.99,123.77 568.89,127.54 575.00,129.61 C578.03,130.64 580.65,131.55 580.83,131.65 C581.01,131.75 580.67,132.75 580.07,133.88 C579.35,135.22 578.40,135.71 577.31,135.29 C576.09,134.82 575.81,135.07 576.26,136.23 C577.06,138.32 575.15,138.72 566.00,138.35 C553.60,137.85 546.00,134.66 546.00,129.96 C546.00,127.18 542.38,127.43 540.78,130.32 C537.16,136.89 517.00,150.24 517.00,146.08 ZM 530.74 94.60 C531.14,92.47 530.75,92.13 527.10,91.52 C521.81,90.62 517.98,87.67 519.75,85.87 C520.44,85.17 520.99,83.68 520.98,82.55 C520.97,80.27 518.75,73.42 517.69,72.35 C516.07,70.74 517.09,65.01 519.45,62.46 C520.79,61.01 522.09,59.30 522.33,58.66 C523.02,56.84 538.83,72.95 539.54,76.19 C540.23,79.33 541.34,79.59 545.00,77.50 C549.43,74.97 550.15,75.61 548.09,80.25 C547.05,82.59 545.72,85.72 545.14,87.21 C544.06,89.97 537.24,95.00 534.58,95.00 C533.78,95.00 532.84,95.45 532.50,96.00 C531.35,97.86 530.27,97.01 530.74,94.60 ZM 121.45 196.55 C117.04,192.13 119.26,184.98 125.53,183.40 C130.24,182.22 135.76,187.85 134.56,192.62 C132.98,198.92 125.94,201.03 121.45,196.55 Z" fill="rgba(3,25,76,1)"/>
</g>
</svg>