<?xml version="1.0" encoding="UTF-8"?>
<svg version="1.1" xmlns="http://www.w3.org/2000/svg" width="645" height="405">
<path d="M0 0 C3.47207883 1.25984078 4.01171952 2.02007403 5.97265625 5.37890625 C8.46014217 10.76866062 10.42986685 16.35593369 12.4375 21.9375 C16.47370894 32.99909951 20.68104931 43.98344256 25 54.9375 C25.28503387 55.66258759 25.57006775 56.38767517 25.86373901 57.13473511 C26.6776906 59.20402234 27.49447798 61.27216269 28.3125 63.33984375 C28.78300781 64.52956787 29.25351563 65.71929199 29.73828125 66.94506836 C30.7370582 69.36335319 31.78428493 71.68593202 33 74 C33.09796875 73.20078125 33.1959375 72.4015625 33.296875 71.578125 C35.70128545 53.9181448 41.84991466 38.49815416 56 27 C72.94408162 15.2710429 92.64631374 11.93751921 112.93359375 14.49609375 C130.18273546 17.89977054 143.87856999 25.53856206 154 40 C154.02505615 39.3387915 154.0501123 38.67758301 154.07592773 37.99633789 C154.19153102 35.01817695 154.31441754 32.0403608 154.4375 29.0625 C154.49647461 27.50112305 154.49647461 27.50112305 154.55664062 25.90820312 C154.59853516 24.91884766 154.64042969 23.92949219 154.68359375 22.91015625 C154.72025146 21.99371338 154.75690918 21.07727051 154.79467773 20.13305664 C155 18 155 18 156 17 C157.45481495 16.9043839 158.91425486 16.87811649 160.37220764 16.87974548 C161.31596756 16.87837082 162.25972748 16.87699615 163.23208618 16.87557983 C164.27577362 16.87917511 165.31946106 16.88277039 166.39477539 16.88647461 C167.48732132 16.88632858 168.57986725 16.88618256 169.70552063 16.8860321 C173.33625233 16.88673178 176.96693346 16.89452671 180.59765625 16.90234375 C183.10729443 16.90420774 185.61693298 16.90563173 188.12657166 16.90663147 C194.06934593 16.91006652 200.01210384 16.91795727 205.95486969 16.92798096 C213.38201925 16.94023747 220.80917105 16.94562208 228.23632812 16.95117188 C241.49089655 16.96191189 254.74544306 16.97950992 268 17 C268 23.93 268 30.86 268 38 C268.66 38 269.32 38 270 38 C270.165 37.175 270.33 36.35 270.5 35.5 C274.26808433 26.70780323 282.50271205 21.69949952 291 18 C310.01569842 11.44815775 332.58497337 11.7972869 351.28125 19.3203125 C362.88095373 25.15203168 368.97347862 33.64103618 373.3125 45.625 C374.11971292 49.5876816 374.2088111 52.96298531 374 57 C372.08710382 58.91289618 368.57775917 58.16375827 365.97265625 58.16796875 C364.91648354 58.17296135 364.91648354 58.17296135 363.838974 58.17805481 C362.34683894 58.18312655 360.8546925 58.18546306 359.36254883 58.18530273 C357.07549393 58.18748759 354.78892247 58.20563549 352.50195312 58.22460938 C351.05468916 58.22754354 349.60742289 58.22952818 348.16015625 58.23046875 C347.47365494 58.23765427 346.78715363 58.24483978 346.07984924 58.25224304 C341.22882369 58.22882369 341.22882369 58.22882369 339 56 C338.49890945 54.7032217 338.04458525 53.38789576 337.625 52.0625 C336.38504202 48.60564744 335.34966524 46.77950966 332 45 C328.01977513 43.67325838 324.35636239 43.73748636 320.1875 43.6875 C319.39279297 43.65849609 318.59808594 43.62949219 317.77929688 43.59960938 C312.42047357 43.54198762 309.11652627 44.22271203 305 48 C304.13769155 50.19170753 304.13769155 50.19170753 304.375 52.5 C304.38273437 53.2528125 304.39046875 54.005625 304.3984375 54.78125 C305.22180418 57.81808296 306.61528283 58.9702492 309 61 C311.59310922 62.03749114 311.59310922 62.03749114 314.47265625 62.6015625 C315.53500488 62.84036133 316.59735352 63.07916016 317.69189453 63.32519531 C321.88369719 64.18026118 326.07891479 65.00581017 330.28515625 65.78686523 C347.57625595 69.01287663 364.20537224 72.89338778 375 88 C379.99544371 96.72366088 380.4147749 108.6380635 378.25 118.3125 C374.19322141 130.27999685 368.11402276 136.97379505 357 143 C349.90320913 146.22854007 342.68867664 147.86974966 335 149 C333.89864455 152.30406635 333.87963937 154.73643693 333.88647461 158.21557617 C333.88658791 160.13722847 333.88658791 160.13722847 333.88670349 162.09770203 C333.89181013 163.49612466 333.89702613 164.8945469 333.90234375 166.29296875 C333.90420911 167.72357636 333.90563246 169.15418461 333.90663147 170.58479309 C333.91044733 174.34786751 333.92026968 178.11090325 333.93133545 181.8739624 C333.94156957 185.71479774 333.94613338 189.55563933 333.95117188 193.39648438 C333.96189278 200.9310072 333.97895804 208.46549818 334 216 C335.60681641 215.98259766 335.60681641 215.98259766 337.24609375 215.96484375 C338.64322743 215.95546701 340.04036299 215.94636669 341.4375 215.9375 C342.14455078 215.92912109 342.85160156 215.92074219 343.58007812 215.91210938 C345.38693559 215.90346412 347.19387603 215.94779989 349 216 C351.75551511 218.75551511 350.18568203 227.21974571 350.1875 230.9375 C350.19974609 232.25169922 350.21199219 233.56589844 350.22460938 234.91992188 C350.22654297 236.17224609 350.22847656 237.42457031 350.23046875 238.71484375 C350.23457764 239.87105225 350.23868652 241.02726074 350.24291992 242.21850586 C350 245 350 245 348 247 C344.9609375 247.1953125 344.9609375 247.1953125 341.375 247.125 C340.18648438 247.10695313 338.99796875 247.08890625 337.7734375 247.0703125 C336.85820312 247.04710937 335.94296875 247.02390625 335 247 C334.01601611 249.95195167 333.90794642 251.7500887 333.97265625 254.81640625 C333.98490234 255.74517578 333.99714844 256.67394531 334.00976562 257.63085938 C334.04499345 259.58926544 334.08407166 261.54760594 334.12695312 263.50585938 C334.13791016 264.43333984 334.14886719 265.36082031 334.16015625 266.31640625 C334.18541382 267.59173218 334.18541382 267.59173218 334.21118164 268.89282227 C334 271 334 271 332 273 C329.35883887 273.18737649 326.8244602 273.25569866 324.18359375 273.23046875 C323.41193375 273.23001053 322.64027374 273.22955231 321.8452301 273.2290802 C320.21361758 273.22605787 318.58200795 273.21817213 316.95043945 273.20581055 C314.44407 273.18754787 311.93806967 273.18530088 309.43164062 273.18554688 C307.84895512 273.18063198 306.26627213 273.17480379 304.68359375 273.16796875 C303.55237343 273.16629951 303.55237343 273.16629951 302.39830017 273.16459656 C297.11605119 273.11605119 297.11605119 273.11605119 296 272 C295.84213692 270.14825294 295.74892644 268.2909089 295.68359375 266.43359375 C295.64169922 265.30888672 295.59980469 264.18417969 295.55664062 263.02539062 C295.51732422 261.84138672 295.47800781 260.65738281 295.4375 259.4375 C295.39431641 258.24962891 295.35113281 257.06175781 295.30664062 255.83789062 C295.20016454 252.89205216 295.09815159 249.9461257 295 247 C294.29034088 247.00444122 293.58068176 247.00888245 292.84951782 247.01345825 C286.16902932 247.0534948 279.48857419 247.08396388 272.80799294 247.10362434 C269.37324541 247.1140717 265.93859683 247.12824805 262.50390625 247.15087891 C258.55730362 247.17672063 254.61074137 247.18646493 250.6640625 247.1953125 C249.42757965 247.20563507 248.1910968 247.21595764 246.91714478 247.22659302 C245.77611298 247.22674408 244.63508118 247.22689514 243.45947266 247.22705078 C242.451315 247.231492 241.44315735 247.23593323 240.40444946 247.24050903 C238 247 238 247 236 245 C235.48001447 240.60809466 235.45761778 236.20021587 235.40966797 231.78149414 C235.38680154 230.31788186 235.34617048 228.85442481 235.28662109 227.3918457 C234.90972431 218.13050216 235.61414977 211.68414105 241.86572266 204.30883789 C242.57003418 203.54692139 243.2743457 202.78500488 244 202 C245.04438978 200.74053438 246.08638329 199.47907434 247.125 198.21484375 C248.07948188 197.11902918 249.03779476 196.02653916 250 194.9375 C254.09785324 190.2292327 258.07194177 185.45777019 261.94140625 180.55859375 C264.40812088 177.49275298 266.94887034 174.49563481 269.5 171.5 C274.1082778 166.08328011 278.60333015 160.59071281 283 155 C283.66386719 154.15953125 284.32773437 153.3190625 285.01171875 152.453125 C288.30117842 148.41836187 288.30117842 148.41836187 291 144 C290.195625 143.814375 289.39125 143.62875 288.5625 143.4375 C278.84301132 139.51560106 271.16037576 131.40335738 266.8125 121.96484375 C264.33874841 115.9826464 263.40640572 110.43290545 264 104 C265 103 265 103 268.14282227 102.88647461 C269.53402697 102.88663367 270.92523761 102.89232494 272.31640625 102.90234375 C273.04746078 102.9037587 273.77851532 102.90517365 274.53172302 102.90663147 C276.87535632 102.91224592 279.21889539 102.92480078 281.5625 102.9375 C283.14778508 102.94251314 284.73307166 102.94707637 286.31835938 102.95117188 C290.2122761 102.96222003 294.10612205 102.97949428 298 103 C299.46439208 106.41421801 300.92748023 109.82858962 302.375 113.25 C304.49254055 116.83353017 306.76579196 118.25526399 310.67578125 119.55859375 C319.06868154 121.15253952 329.50064876 121.26433698 337 117 C339.74792408 114.00226464 339.99104698 112.5103223 340.0625 108.4375 C338.6767943 103.95433452 337.04041312 103.25924088 333 101 C329.67824409 100.00678921 329.67824409 100.00678921 326.125 99.47265625 C325.47861572 99.35699814 324.83223145 99.24134003 324.16625977 99.12217712 C322.11291817 98.7555156 320.05717081 98.40697793 318 98.0625 C300.94361559 95.19103408 283.46854791 91.52215461 272.4375 76.93359375 C266.30471766 68.220915 265.92129582 62.0555499 265 51 C248.17 50.505 248.17 50.505 231 50 C231.01571045 52.83182861 231.0314209 55.66365723 231.04760742 58.58129883 C231.09725918 67.92509759 231.13043132 77.26890211 231.15543652 86.61279774 C231.1711097 92.27945227 231.19237822 97.94597193 231.22631836 103.61254883 C231.25885272 109.07846596 231.27684055 114.54425316 231.28463173 120.01025963 C231.29018589 122.09832493 231.30103145 124.18638292 231.31719017 126.27439308 C231.33888562 129.19325906 231.34197022 132.11158429 231.34057617 135.03051758 C231.35675491 136.33279297 231.35675491 136.33279297 231.3732605 137.66137695 C231.34271191 143.55076359 231.34271191 143.55076359 229.6860857 145.72231579 C226.94233603 147.80147797 223.86224259 147.40674187 220.55859375 147.36328125 C219.47337181 147.36402901 219.47337181 147.36402901 218.3662262 147.36479187 C216.83893075 147.36245389 215.31163128 147.35274153 213.78442383 147.33618164 C211.44252227 147.31255068 209.1017564 147.31562691 206.75976562 147.32226562 C205.27603486 147.31668999 203.7923089 147.30958082 202.30859375 147.30078125 C201.25544228 147.30214836 201.25544228 147.30214836 200.18101501 147.30354309 C195.23104851 147.23104851 195.23104851 147.23104851 193 145 C192.81161646 141.98669994 192.74835557 139.06594957 192.77294922 136.05224609 C192.77265717 135.12536484 192.77236511 134.19848358 192.77206421 133.24351501 C192.77346111 130.17006166 192.78903925 127.09684867 192.8046875 124.0234375 C192.80841635 121.89637382 192.81126392 119.76930844 192.81326294 117.64224243 C192.82090948 112.03620688 192.84056673 106.4302745 192.8626709 100.82427979 C192.88310736 95.10682572 192.89225994 89.38935504 192.90234375 83.671875 C192.92381168 72.44786398 192.95900213 61.2239567 193 50 C182.11 50 171.22 50 160 50 C161.485 55.445 161.485 55.445 163 61 C162.67 62.65 162.34 64.3 162 66 C157.12563009 66.22329729 152.25426039 66.38613882 147.37597656 66.49438477 C145.71887346 66.53951672 144.06212631 66.60084462 142.40625 66.67895508 C128.61389206 67.31303884 128.61389206 67.31303884 124.60986328 64.05541992 C123.07012822 61.74581733 122.00582886 59.57913548 121 57 C117.81133996 52.21700994 114.41650806 49.7790807 109 48 C100.37300218 46.38023714 92.54700765 46.55161127 84.75 50.75 C77.66009826 56.55082869 74.3798493 63.09814037 73 72 C72.1265511 84.68001681 71.70727463 98.35557592 79.625 109.0625 C85.12422656 114.57544034 91.90381963 116.22263652 99.5 116.5 C107.68136964 116.1919955 114.16177405 114.37675042 119.875 108.3125 C123.42476782 104.14732017 124.60482304 100.38914817 127 95 C138.88 95 150.76 95 163 95 C163 109.72692689 156.12456201 122.31064421 146.1875 132.90234375 C143.61197451 135.37208873 141.0497672 137.17013968 138 139 C137.67 139.66 137.34 140.32 137 141 C138.02738281 140.96519531 139.05476562 140.93039063 140.11328125 140.89453125 C154.94842033 140.53891896 169.13735725 143.23576944 180.4375 153.75 C188.34085481 162.37632282 191.37220264 172.43968895 190.875 183.9375 C189.81043836 195.54748398 184.99802409 204.80347136 176.60546875 212.875 C166.35369343 221.23626803 153.52039872 226.16155308 141.42993164 231.19458008 C140.39602295 231.63181396 139.36211426 232.06904785 138.296875 232.51953125 C137.37229492 232.90214111 136.44771484 233.28475098 135.49511719 233.67895508 C132.74712431 235.13388555 130.97116975 236.5994751 129 239 C129 239.99 129 240.98 129 242 C130.12086502 241.99666908 130.12086502 241.99666908 131.26437378 241.99327087 C138.29806609 241.97325405 145.33174858 241.95801874 152.36546135 241.94818783 C155.98177172 241.94296381 159.59805861 241.93587485 163.21435547 241.92456055 C166.70268104 241.91371462 170.19098398 241.90771953 173.6793251 241.90512276 C175.66137692 241.90236919 177.6434196 241.8945599 179.62545776 241.88670349 C180.82655182 241.88662796 182.02764587 241.88655243 183.26513672 241.88647461 C184.32658905 241.884254 185.38804138 241.88203339 186.48165894 241.87974548 C189 242 189 242 191 243 C191.02465746 247.1117256 191.04283959 251.22342278 191.05493164 255.33520508 C191.0599708 256.73495228 191.06680216 258.1346942 191.07543945 259.53442383 C191.0875232 261.54245777 191.09269807 263.55052957 191.09765625 265.55859375 C191.10551147 267.37315063 191.10551147 267.37315063 191.11352539 269.22436523 C191 272 191 272 190 273 C188.27334903 273.10280436 186.54247548 273.13520947 184.81277466 273.14044189 C183.12597092 273.14900711 183.12597092 273.14900711 181.40509033 273.15774536 C179.5380545 273.15942215 179.5380545 273.15942215 177.63330078 273.16113281 C176.33099518 273.16609772 175.02868958 273.17106262 173.68692017 273.17617798 C170.10424811 273.18932566 166.52159481 273.19575157 162.93890238 273.20018864 C160.7024488 273.20311566 158.46600039 273.20721976 156.22954941 273.21169281 C149.23765528 273.22537422 142.24577291 273.23503762 135.25386631 273.2388947 C127.17268029 273.24337668 119.0916633 273.26092822 111.01052868 273.2898953 C104.77101928 273.31148739 98.53155752 273.32159766 92.29201114 273.32293582 C88.56223429 273.32398567 84.83261621 273.32993128 81.10287857 273.34775543 C76.94364358 273.36724456 72.78476379 273.36295706 68.62548828 273.35644531 C67.38484619 273.3656601 66.1442041 273.37487488 64.8659668 273.3843689 C63.17070358 273.37601517 63.17070358 273.37601517 61.44119263 273.36749268 C59.9650458 273.36969252 59.9650458 273.36969252 58.45907784 273.3719368 C55.58370174 272.93703467 54.73526358 272.28331845 53 270 C52.05873108 267.97364807 52.05873108 267.97364807 51.25415039 265.62719727 C50.94695572 264.74520157 50.63976105 263.86320587 50.32325745 262.95448303 C50.00130905 262.00141769 49.67936066 261.04835236 49.34765625 260.06640625 C49.00625107 259.07809311 48.66484589 258.08977997 48.31309509 257.07151794 C47.22135264 253.90459992 46.14185401 250.73365893 45.0625 247.5625 C44.33998071 245.46131741 43.61668182 243.36040273 42.89257812 241.25976562 C39.76111575 232.15875379 36.64363691 223.05459002 33.68920898 213.89428711 C33.15697231 212.01606363 33.15697231 212.01606363 32 211 C31.8040625 211.98097656 31.608125 212.96195313 31.40625 213.97265625 C26.63105595 236.1782797 13.98443646 253.5352187 -5 266 C-5.99 266 -6.98 266 -8 266 C-8 265.34 -8 264.68 -8 264 C-6.515 262.7934375 -6.515 262.7934375 -5 261.5625 C3.08441586 254.85555053 10.3155078 244.49688198 12 234 C12.93188095 223.19934704 10.71775566 214.41952041 3.8984375 205.88671875 C-1.95176975 200.07262389 -9.89943503 195.145807 -18.29833984 194.94506836 C-19.49257568 194.95485718 -19.49257568 194.95485718 -20.7109375 194.96484375 C-21.5157959 194.96991943 -22.3206543 194.97499512 -23.14990234 194.98022461 C-23.76043457 194.98675049 -24.3709668 194.99327637 -25 195 C-30.15410028 209.32375842 -35.25167051 223.66203115 -40.1875 238.0625 C-43.07141534 246.45697425 -45.96836721 254.84503682 -49 263.1875 C-49.2786792 263.96552979 -49.5573584 264.74355957 -49.84448242 265.54516602 C-51.7629827 270.7629827 -51.7629827 270.7629827 -54 273 C-56.12524414 273.24723816 -56.12524414 273.24723816 -58.78515625 273.24291992 C-59.7795874 273.24599655 -60.77401855 273.24907318 -61.79858398 273.25224304 C-62.87567627 273.24505753 -63.95276855 273.23787201 -65.0625 273.23046875 C-66.164729 273.23001053 -67.26695801 273.22955231 -68.40258789 273.2290802 C-70.73617629 273.22605522 -73.06976263 273.21816166 -75.40332031 273.20581055 C-78.98509842 273.18757586 -82.56661787 273.18530067 -86.1484375 273.18554688 C-88.41146058 273.180631 -90.6744819 273.17480238 -92.9375 273.16796875 C-94.01459229 273.16685593 -95.09168457 273.1657431 -96.20141602 273.16459656 C-97.19584717 273.15821671 -98.19027832 273.15183685 -99.21484375 273.14526367 C-100.09261475 273.14145187 -100.97038574 273.13764008 -101.87475586 273.13371277 C-104 273 -104 273 -106 272 C-105.49626287 264.86070009 -103.30425024 258.88899645 -100.6875 252.26171875 C-100.24635864 251.12357727 -99.80521729 249.98543579 -99.35070801 248.81280518 C-98.15655324 245.73763533 -96.95432878 242.66578195 -95.74813843 239.59531784 C-94.4928779 236.3942947 -93.24817243 233.18917023 -92.00195312 229.98461914 C-85.22090559 212.56539901 -78.37416225 195.17103505 -71.45703125 177.80541992 C-68.34128278 169.9778665 -65.27599869 162.13842477 -62.33886719 154.24203491 C-59.20486153 145.8321356 -55.93705057 137.47394021 -52.68460083 129.10931396 C-50.59869143 123.74431866 -48.5161239 118.37802651 -46.43359375 113.01171875 C-45.9954686 111.88284241 -45.55734344 110.75396606 -45.10594177 109.59088135 C-40.38418779 97.42030309 -35.68358405 85.24157955 -30.9850769 73.06201172 C-29.57082361 69.396573 -28.15576426 65.73144643 -26.74047852 62.06640625 C-21.35826583 48.12994041 -21.35826583 48.12994041 -16.00666809 34.18170166 C-14.89749936 31.28092471 -13.78510751 28.38138984 -12.67233276 25.48199463 C-11.97325926 23.65590861 -11.279574 21.82776251 -10.58618164 19.99951172 C-3.59681529 1.79840764 -3.59681529 1.79840764 0 0 Z M0 122 C-3.00082731 128.61150017 -5.28586662 135.44409789 -7.625 142.3125 C-8.50821399 144.90004778 -9.39261197 147.48718958 -10.27734375 150.07421875 C-10.50112198 150.72942505 -10.72490021 151.38463135 -10.95545959 152.05969238 C-12.50247402 156.57878452 -14.08774326 161.08271864 -15.69140625 165.58203125 C-16.11147949 166.76821045 -16.53155273 167.95438965 -16.96435547 169.17651367 C-17.76751557 171.44091215 -18.57752616 173.70289478 -19.39501953 175.9621582 C-19.75321777 176.97753662 -20.11141602 177.99291504 -20.48046875 179.0390625 C-20.79910889 179.92803223 -21.11774902 180.81700195 -21.44604492 181.73291016 C-22.24810275 184.14297966 -22.24810275 184.14297966 -21 187 C-19.515 186.505 -19.515 186.505 -18 186 C-15.34306002 185.903384 -12.71859145 185.86073272 -10.0625 185.875 C-9.34642578 185.87113281 -8.63035156 185.86726563 -7.89257812 185.86328125 C-4.43147348 185.86969664 -1.32004856 186.01738473 2 187 C7.82498678 187.60716235 7.82498678 187.60716235 12.875 185.0625 C16.93793289 179.20709671 17.26486787 172.99715375 17 166 C16.20137728 162.72502956 16.20137728 162.72502956 14.98828125 159.46484375 C14.55966797 158.24216797 14.13105469 157.01949219 13.68945312 155.75976562 C13.2307223 154.48558577 12.77173729 153.2114974 12.3125 151.9375 C11.87744141 150.70322266 11.44238281 149.46894531 10.99414062 148.19726562 C10.11727788 145.71476977 9.23335185 143.23475718 8.34228516 140.75732422 C7.41787601 138.1697184 6.51003349 135.5810199 5.62255859 132.98095703 C5.39932419 132.33453751 5.17608978 131.68811798 4.9460907 131.02210999 C4.32712365 129.22791101 3.71452185 127.43151982 3.10229492 125.63500977 C2.28196511 122.86908699 2.28196511 122.86908699 0 122 Z M57 136 C57.57424191 140.0573852 58.46816051 143.61754695 59.97436523 147.42504883 C60.38246933 148.46506546 60.79057343 149.50508209 61.21104431 150.57661438 C61.65573563 151.69215195 62.10042694 152.80768951 62.55859375 153.95703125 C63.02177505 155.13222824 63.48495636 156.30742523 63.96217346 157.51823425 C65.19859913 160.65194919 66.4401291 163.78354218 67.68414307 166.91424561 C68.91045194 170.00421015 70.1296103 173.09699298 71.34960938 176.18945312 C75.17083272 185.86531095 79.00724942 195.53492614 82.88330078 205.18896484 C83.34060074 206.32847092 83.7979007 207.46797699 84.26905823 208.64201355 C85.12991199 210.78488897 85.99238924 212.92711319 86.85679626 215.06855774 C88.70860922 219.6753399 90.5119484 224.25918489 92 229 C95.2221681 227.92594397 96.10466779 226.83972744 98 223.9375 C105.26602548 213.37871372 117.52174342 208.50319661 129 204 C129.68658691 203.73058594 130.37317383 203.46117187 131.08056641 203.18359375 C131.7616748 202.91675781 132.4427832 202.64992188 133.14453125 202.375 C133.81315186 202.11162842 134.48177246 201.84825684 135.1706543 201.5769043 C137.00761025 200.85841472 138.85126646 200.15712313 140.6953125 199.45703125 C146.70476413 196.80747397 151.01885166 193.96229668 154 188 C154.68808059 184.0647975 154.39737499 180.85151785 152.6875 177.1875 C149.94754937 173.63571215 148.45977056 171.87461931 144 171 C136.17580601 170.41133256 136.17580601 170.41133256 129 173 C123.75137777 178.00450026 123.7250318 180.23735689 122 188 C111.11 188 100.22 188 89 188 C89 175.5212239 90.8338419 164.5896899 99.65234375 155.25 C101.10063165 153.83238172 102.55020595 152.41607791 104 151 C104 150.34 104 149.68 104 149 C102.38544922 148.94392578 102.38544922 148.94392578 100.73828125 148.88671875 C84.17146276 148.19492592 71.27764915 144.69074296 57 136 Z M296 180 C294.23343315 181.89943683 292.57873255 183.80884841 290.9375 185.8125 C290.20213013 186.69675659 290.20213013 186.69675659 289.4519043 187.59887695 C287.96175748 189.39424912 286.48010318 191.19634406 285 193 C284.19304687 193.97710937 283.38609375 194.95421875 282.5546875 195.9609375 C280.35846715 198.63160266 278.1783194 201.31472627 276 204 C275.22914063 204.93585938 274.45828125 205.87171875 273.6640625 206.8359375 C272.92929687 207.73570312 272.19453125 208.63546875 271.4375 209.5625 C270.77621094 210.36816406 270.11492187 211.17382812 269.43359375 212.00390625 C267.80555292 213.86114973 267.80555292 213.86114973 268 216 C272.1117256 216.02465746 276.22342278 216.04283959 280.33520508 216.05493164 C281.73495228 216.0599708 283.1346942 216.06680216 284.53442383 216.07543945 C286.54245777 216.0875232 288.55052957 216.09269807 290.55859375 216.09765625 C291.76829834 216.10289307 292.97800293 216.10812988 294.22436523 216.11352539 C296.90812017 216.31775285 296.90812017 216.31775285 298 215 C298.08851529 212.40640678 298.11525945 209.83960309 298.09765625 207.24609375 C298.09553383 206.08292381 298.09553383 206.08292381 298.09336853 204.89625549 C298.08775345 202.40996506 298.07519846 199.9237634 298.0625 197.4375 C298.05748694 195.75586067 298.0529237 194.07421994 298.04882812 192.39257812 C298.03777913 188.26168434 298.02050445 184.13085724 298 180 C297.34 180 296.68 180 296 180 Z " fill="#FFFFFF" transform="translate(134,40)"/>
<path d="M0 0 C1.13236084 -0.00636475 2.26472168 -0.01272949 3.43139648 -0.01928711 C17.82120185 0.19856484 30.59952349 4.38382942 41.2109375 14.3203125 C49.35785899 23.30446703 50.75743613 33.37204445 50.5 45.00390625 C49.94273183 56.13301599 44.59943199 64.49380811 36.6875 72 C26.37059874 80.53017534 13.95792789 85.54243502 1.71899414 90.64355469 C0.15266235 91.30726074 0.15266235 91.30726074 -1.4453125 91.984375 C-2.85127686 92.56783691 -2.85127686 92.56783691 -4.28564453 93.16308594 C-7.04858141 94.62490645 -8.83282853 96.08536991 -10.8125 98.5 C-10.8125 99.49 -10.8125 100.48 -10.8125 101.5 C-10.06525665 101.49777939 -9.31801331 101.49555878 -8.54812622 101.49327087 C-1.51443391 101.47325405 5.51924858 101.45801874 12.55296135 101.44818783 C16.16927172 101.44296381 19.78555861 101.43587485 23.40185547 101.42456055 C26.89018104 101.41371462 30.37848398 101.40771953 33.8668251 101.40512276 C35.84887692 101.40236919 37.8309196 101.3945599 39.81295776 101.38670349 C41.01405182 101.38662796 42.21514587 101.38655243 43.45263672 101.38647461 C45.04481522 101.38314369 45.04481522 101.38314369 46.66915894 101.37974548 C49.1875 101.5 49.1875 101.5 51.1875 102.5 C51.21215746 106.6117256 51.23033959 110.72342278 51.24243164 114.83520508 C51.2474708 116.23495228 51.25430216 117.6346942 51.26293945 119.03442383 C51.2750232 121.04245777 51.28019807 123.05052957 51.28515625 125.05859375 C51.29039307 126.26829834 51.29562988 127.47800293 51.30102539 128.72436523 C51.1875 131.5 51.1875 131.5 50.1875 132.5 C48.84910527 132.59742068 47.50563175 132.62631559 46.16369629 132.62698364 C45.29710892 132.62980347 44.43052155 132.63262329 43.53767395 132.63552856 C42.5797142 132.63350433 41.62175446 132.6314801 40.63476562 132.62939453 C39.63160812 132.63114685 38.62845062 132.63289917 37.59489441 132.63470459 C34.26116228 132.63912516 30.92748271 132.63618439 27.59375 132.6328125 C25.28828928 132.63348548 22.98282864 132.63445545 20.67736816 132.63571167 C15.83845343 132.63718892 10.99955713 132.63503321 6.16064453 132.63037109 C-0.05744645 132.6246738 -6.27549428 132.62795266 -12.49358368 132.63394356 C-17.25633065 132.63754843 -22.0190673 132.63641092 -26.78181458 132.63381577 C-29.07526149 132.63314629 -31.36870932 132.63397562 -33.66215515 132.63629532 C-36.86138406 132.63882064 -40.06054203 132.63498295 -43.25976562 132.62939453 C-44.69670525 132.63243088 -44.69670525 132.63243088 -46.16267395 132.63552856 C-47.46255501 132.63129883 -47.46255501 132.63129883 -48.78869629 132.62698364 C-49.5460331 132.62660662 -50.3033699 132.62622959 -51.08365631 132.62584114 C-52.8125 132.5 -52.8125 132.5 -53.8125 131.5 C-55.51860685 114.27185065 -53.54292905 96.60629437 -42.8125 82.5 C-32.20341684 70.32971397 -17.50489765 64.85872909 -2.72680664 59.37646484 C3.13238982 57.14872796 9.09169606 54.64370591 12.6875 49.25 C13.42940266 45.16953536 13.32569572 41.50180915 12.1875 37.5 C9.62214804 34.25955542 8.100695 32.80439833 4.1875 31.5 C-2.10993178 30.9275062 -7.40056817 31.07612476 -12.8125 34.5 C-15.34205248 39.03574927 -16.36994629 43.45106201 -17.8125 48.5 C-29.0325 48.5 -40.2525 48.5 -51.8125 48.5 C-51.8125 33.34222088 -49.89634551 23.62033835 -39.8125 12.5 C-28.64011831 1.9082618 -14.71901221 0.07107732 0 0 Z " fill="#FFFFFF" transform="translate(538.8125,180.5)"/>
<path d="M0 0 C2.4375 1.6875 2.4375 1.6875 4 3 C4.33 1.35 4.66 -0.3 5 -2 C10.10863896 -2.0246501 15.21724359 -2.04283607 20.32592773 -2.05493164 C22.06519168 -2.05997204 23.80445136 -2.0668043 25.54370117 -2.07543945 C28.03825937 -2.08751792 30.53276173 -2.09323108 33.02734375 -2.09765625 C33.80963852 -2.10281754 34.59193329 -2.10797882 35.39793396 -2.11329651 C37.26567114 -2.11349226 39.13329204 -2.06199694 41 -2 C42 -1 42 -1 42.09765625 1.28515625 C42.08605469 2.20167969 42.07445312 3.11820312 42.0625 4.0625 C42.05347656 4.98160156 42.04445313 5.90070313 42.03515625 6.84765625 C42.02355469 7.55792969 42.01195312 8.26820313 42 9 C39.59454362 10.20272819 38.05003047 10.10071472 35.375 10.0625 C34.14910156 10.04896484 34.14910156 10.04896484 32.8984375 10.03515625 C32.27195312 10.02355469 31.64546875 10.01195312 31 10 C29.59298855 12.81402291 29.90596271 15.14215893 29.9375 18.28515625 C29.94910156 20.16364258 29.94910156 20.16364258 29.9609375 22.08007812 C29.98027344 24.05137695 29.98027344 24.05137695 30 26.0625 C30.02537909 28.65751161 30.04645619 31.25257014 30.0625 33.84765625 C30.07410156 35.00273682 30.08570313 36.15781738 30.09765625 37.34790039 C30 40 30 40 29 41 C25.04 41 21.08 41 17 41 C17 30.77 17 20.54 17 10 C10.41446025 9.74984827 10.41446025 9.74984827 5 12 C1.63759712 12.37360032 -1.64138548 12.41577704 -5 12 C-7.1875 10 -7.1875 10 -9 8 C-12.6675213 7.66582071 -12.6675213 7.66582071 -16 8 C-16 9.32 -16 10.64 -16 12 C-14.37191406 12.34611328 -14.37191406 12.34611328 -12.7109375 12.69921875 C-11.26542007 13.02774544 -9.82011859 13.35722333 -8.375 13.6875 C-7.66214844 13.83638672 -6.94929687 13.98527344 -6.21484375 14.13867188 C-0.93676567 15.37345161 2.11330319 17.20299619 6 21 C7.8680999 24.73619981 7.54372628 28.93142747 7 33 C5.07739462 37.16420806 1.50590824 39.95177065 -2.78125 41.53125 C-10.37174966 43.13487669 -18.2910769 43.05330771 -25 39 C-28.04057572 36.35602111 -29.72372114 34.82883658 -31 31 C-31.495 35.95 -31.495 35.95 -32 41 C-36.31248609 41.02886537 -40.62494762 41.04675255 -44.9375 41.0625 C-46.16919922 41.07087891 -47.40089844 41.07925781 -48.66992188 41.08789062 C-49.83974609 41.09111328 -51.00957031 41.09433594 -52.21484375 41.09765625 C-53.84087524 41.10551147 -53.84087524 41.10551147 -55.49975586 41.11352539 C-58 41 -58 41 -59 40 C-59.20839015 38.35892758 -59.36751725 36.71143707 -59.5 35.0625 C-59.75214943 31.39442535 -59.75214943 31.39442535 -61 28 C-63.12576782 27.53348793 -63.12576782 27.53348793 -65.5625 27.375 C-66.38878906 27.30023438 -67.21507812 27.22546875 -68.06640625 27.1484375 C-68.70449219 27.09945313 -69.34257812 27.05046875 -70 27 C-69.98839844 27.92683594 -69.97679687 28.85367187 -69.96484375 29.80859375 C-69.95582031 31.00613281 -69.94679688 32.20367187 -69.9375 33.4375 C-69.92589844 34.63246094 -69.91429687 35.82742188 -69.90234375 37.05859375 C-70 40 -70 40 -71 41 C-72.83115883 41.09851171 -74.66619933 41.12972629 -76.5 41.125 C-77.5003125 41.12757813 -78.500625 41.13015625 -79.53125 41.1328125 C-82 41 -82 41 -83 40 C-83.101137 36.98191937 -83.13968909 33.98719487 -83.1328125 30.96875 C-83.13376923 30.06249878 -83.13472595 29.15624756 -83.13571167 28.22253418 C-83.13639353 26.30248953 -83.13453882 24.38244259 -83.13037109 22.46240234 C-83.12502292 19.51264296 -83.13031588 16.56303586 -83.13671875 13.61328125 C-83.13605797 11.75260383 -83.13477681 9.8919265 -83.1328125 8.03125 C-83.13483673 7.14272339 -83.13686096 6.25419678 -83.13894653 5.33874512 C-83.11494988 -0.88505012 -83.11494988 -0.88505012 -82 -2 C-77.77783581 -2.28287771 -73.5430004 -2.23189192 -69.3125 -2.25 C-68.12720703 -2.270625 -66.94191406 -2.29125 -65.72070312 -2.3125 C-58.7615277 -2.34372457 -53.51806234 -2.27543735 -48.1875 2.6875 C-46.01727282 6.91373188 -45.49983495 11.16606149 -46.75 15.75 C-48.00303439 18.0054619 -49.37102496 20.00080336 -51 22 C-50.01 22.33 -49.02 22.66 -48 23 C-46.64908472 25.70183055 -46.66141942 28.11808206 -46.4375 31.125 C-46.35371094 32.22070312 -46.26992188 33.31640625 -46.18359375 34.4453125 C-46.12300781 35.28835938 -46.06242187 36.13140625 -46 37 C-45.67 37 -45.34 37 -45 37 C-44.96241577 35.28115601 -44.96241577 35.28115601 -44.92407227 33.52758789 C-44.83016894 29.29146402 -44.72990725 25.05551072 -44.62768555 20.81958008 C-44.5842718 18.98335753 -44.54260161 17.14709292 -44.50268555 15.31079102 C-44.44513831 12.67711689 -44.38140002 10.04365579 -44.31640625 7.41015625 C-44.29969376 6.58411392 -44.28298126 5.75807159 -44.26576233 4.90699768 C-44.11387171 -0.88612829 -44.11387171 -0.88612829 -43 -2 C-41.33570949 -2.09823937 -39.66718069 -2.12973631 -38 -2.125 C-36.63875 -2.12886719 -36.63875 -2.12886719 -35.25 -2.1328125 C-33 -2 -33 -2 -32 -1 C-31.91224395 1.14558827 -31.89304781 3.29404421 -31.90234375 5.44140625 C-31.90556641 6.74658203 -31.90878906 8.05175781 -31.91210938 9.39648438 C-31.92046599 10.7851569 -31.92893095 12.17382877 -31.9375 13.5625 C-31.94251334 14.95507656 -31.94707653 16.34765481 -31.95117188 17.74023438 C-31.96300566 21.1601987 -31.9794912 24.58007844 -32 28 C-31.01 27.34 -30.02 26.68 -29 26 C-25.94086325 25.46479191 -23.05521665 25.42364961 -20 26 C-18.64172029 27.64639965 -17.30745749 29.31295807 -16 31 C-13.20523503 31.46127189 -10.85418168 31.23784847 -8 31 C-7.67 29.68 -7.34 28.36 -7 27 C-8.09699219 26.75765625 -9.19398438 26.5153125 -10.32421875 26.265625 C-11.77880891 25.9277847 -13.23322719 25.58920375 -14.6875 25.25 C-15.40873047 25.09273438 -16.12996094 24.93546875 -16.87304688 24.7734375 C-22.85204265 23.35376727 -26.50399773 21.2440034 -30 16 C-30.59022577 11.47749084 -30.52729459 7.30436029 -28.8125 3.0625 C-21.62172441 -5.12010671 -8.9945021 -4.95615422 0 0 Z M-70 8 C-70 10.97 -70 13.94 -70 17 C-68.1128125 17.061875 -68.1128125 17.061875 -66.1875 17.125 C-65.47980469 17.14820313 -64.77210938 17.17140625 -64.04296875 17.1953125 C-61.68640281 17.13254462 -61.68640281 17.13254462 -59 15 C-58.58333333 12.5 -58.58333333 12.5 -59 10 C-60.78657757 7.78629949 -60.78657757 7.78629949 -63.1640625 7.8046875 C-66.58203125 7.90234375 -66.58203125 7.90234375 -70 8 Z " fill="#FFFFFF" transform="translate(548,329)"/>
<path d="M0 0 C3.51185868 3.23090998 5.97352321 6.69136944 8 11 C8.06058594 10.14535156 8.12117188 9.29070312 8.18359375 8.41015625 C8.30927734 6.75306641 8.30927734 6.75306641 8.4375 5.0625 C8.55931641 3.40927734 8.55931641 3.40927734 8.68359375 1.72265625 C9 -1 9 -1 10 -2 C11.83115883 -2.09851171 13.66619933 -2.12972629 15.5 -2.125 C16.5003125 -2.12757813 17.500625 -2.13015625 18.53125 -2.1328125 C21 -2 21 -2 22 -1 C22.23527773 1.34987262 22.41386417 3.70556039 22.5625 6.0625 C22.64628906 7.35285156 22.73007813 8.64320313 22.81640625 9.97265625 C22.87699219 10.97167969 22.93757813 11.97070312 23 13 C26.63 13 30.26 13 34 13 C34.06058594 12.08476562 34.12117188 11.16953125 34.18359375 10.2265625 C34.30927734 8.44378906 34.30927734 8.44378906 34.4375 6.625 C34.55931641 4.84996094 34.55931641 4.84996094 34.68359375 3.0390625 C35 0 35 0 36 -2 C39.96 -2 43.92 -2 48 -2 C48 12.19 48 26.38 48 41 C44.04 41 40.08 41 36 41 C33.86920309 36.73840618 34.95497683 30.59236298 35 26 C30.71 25.67 26.42 25.34 22 25 C22.01160156 26.07121094 22.02320313 27.14242188 22.03515625 28.24609375 C22.04453299 29.64322743 22.05363331 31.04036299 22.0625 32.4375 C22.07087891 33.14455078 22.07925781 33.85160156 22.08789062 34.58007812 C22.09653588 36.38693559 22.05220011 38.19387603 22 40 C21 41 21 41 18.53125 41.1328125 C17.03078125 41.12894531 17.03078125 41.12894531 15.5 41.125 C14.4996875 41.12757813 13.499375 41.13015625 12.46875 41.1328125 C10 41 10 41 9 40 C8.92741054 37.81360547 8.91626217 35.62499611 8.9375 33.4375 C8.94652344 32.23996094 8.95554687 31.04242188 8.96484375 29.80859375 C8.97644531 28.88175781 8.98804688 27.95492188 9 27 C8.34 27 7.68 27 7 27 C6.95875 27.680625 6.9175 28.36125 6.875 29.0625 C5.44167153 33.87438844 2.48668652 37.45260774 -1.7890625 40.11328125 C-7.87402011 42.75510441 -14.89895471 43.18584442 -21.26953125 41.34375 C-27.27088686 38.68158078 -31.13015199 34.22973747 -34.375 28.625 C-35.29726888 24.7514707 -35.15535958 20.96166932 -35 17 C-35.99 17.66 -36.98 18.32 -38 19 C-37.54460364 21.12518302 -37.10862822 22.82224473 -35.96875 24.6875 C-34.60972908 27.93161446 -34.81019163 30.75034787 -34.875 34.25 C-34.89304688 35.51328125 -34.91109375 36.7765625 -34.9296875 38.078125 C-34.95289063 39.04234375 -34.97609375 40.0065625 -35 41 C-36.97909398 41.02686553 -38.95828971 41.04633375 -40.9375 41.0625 C-42.03964844 41.07410156 -43.14179688 41.08570313 -44.27734375 41.09765625 C-47 41 -47 41 -48 40 C-48.20839015 38.35892758 -48.36751725 36.71143707 -48.5 35.0625 C-48.75214943 31.39442535 -48.75214943 31.39442535 -50 28 C-52.12576782 27.53348793 -52.12576782 27.53348793 -54.5625 27.375 C-55.38878906 27.30023438 -56.21507812 27.22546875 -57.06640625 27.1484375 C-57.70449219 27.09945313 -58.34257812 27.05046875 -59 27 C-58.98839844 27.92683594 -58.97679687 28.85367187 -58.96484375 29.80859375 C-58.95582031 31.00613281 -58.94679687 32.20367187 -58.9375 33.4375 C-58.92589844 34.63246094 -58.91429687 35.82742188 -58.90234375 37.05859375 C-59 40 -59 40 -60 41 C-61.83115883 41.09851171 -63.66619933 41.12972629 -65.5 41.125 C-66.5003125 41.12757813 -67.500625 41.13015625 -68.53125 41.1328125 C-71 41 -71 41 -72 40 C-72.101137 36.98191937 -72.13968909 33.98719487 -72.1328125 30.96875 C-72.13376923 30.06249878 -72.13472595 29.15624756 -72.13571167 28.22253418 C-72.13639353 26.30248953 -72.13453882 24.38244259 -72.13037109 22.46240234 C-72.12502292 19.51264296 -72.13031588 16.56303586 -72.13671875 13.61328125 C-72.13605797 11.75260383 -72.13477681 9.8919265 -72.1328125 8.03125 C-72.13483673 7.14272339 -72.13686096 6.25419678 -72.13894653 5.33874512 C-72.11494988 -0.88505012 -72.11494988 -0.88505012 -71 -2 C-66.77783581 -2.28287771 -62.5430004 -2.23189192 -58.3125 -2.25 C-57.12720703 -2.270625 -55.94191406 -2.29125 -54.72070312 -2.3125 C-43.75771254 -2.36168897 -43.75771254 -2.36168897 -39 1 C-35.74507429 4.34058165 -35 5.22812981 -35 10 C-34.34 10 -33.68 10 -33 10 C-32.773125 9.278125 -32.54625 8.55625 -32.3125 7.8125 C-30.11994044 3.1141581 -27.04721516 0.22486228 -22.3125 -1.8125 C-15.00998819 -4.21916585 -6.66824054 -4.09252531 0 0 Z M-59 8 C-59 10.97 -59 13.94 -59 17 C-54.49098637 17.17957899 -54.49098637 17.17957899 -50 17 C-47.7508092 15.17296773 -47.7508092 15.17296773 -47.75 12.5 C-47.7508092 9.82703227 -47.7508092 9.82703227 -50 8 C-53.01826653 7.72759327 -55.96370622 7.91324875 -59 8 Z M-21 13 C-22.73348019 16.46696038 -22.47699379 20.20948937 -22 24 C-19.77561281 28.27403857 -19.77561281 28.27403857 -16 31 C-12.12785818 31.43023798 -10.47503629 31.31669086 -7.1875 29.125 C-4.95999833 27.19494846 -4.95999833 27.19494846 -4 25 C-3.14535156 25.01160156 -2.29070312 25.02320313 -1.41015625 25.03515625 C-0.30542969 25.04417969 0.79929687 25.05320312 1.9375 25.0625 C3.03964844 25.07410156 4.14179688 25.08570313 5.27734375 25.09765625 C7.91447634 25.31262571 7.91447634 25.31262571 9 24 C9.07205511 22.31391034 9.08386068 20.62499341 9.0625 18.9375 C9.041875 17.308125 9.02125 15.67875 9 14 C4.38 14 -0.24 14 -5 14 C-5.66 12.68 -6.32 11.36 -7 10 C-13.05206087 5.96529275 -16.58277771 7.69933325 -21 13 Z " fill="#FFFFFF" transform="translate(227,329)"/>
<path d="M0 0 C4.32179915 3.51209439 5.84002442 7.72738372 7 13 C7.66 13 8.32 13 9 13 C8.98839844 11.92878906 8.97679687 10.85757812 8.96484375 9.75390625 C8.95546701 8.35677257 8.94636669 6.95963701 8.9375 5.5625 C8.92912109 4.85544922 8.92074219 4.14839844 8.91210938 3.41992188 C8.90346412 1.61306441 8.94779989 -0.19387603 9 -2 C10.90849948 -3.90849948 14.31478774 -3.13059633 16.84375 -3.1328125 C17.52804077 -3.13376923 18.21233154 -3.13472595 18.9173584 -3.13571167 C20.36661877 -3.1363933 21.81588218 -3.13454023 23.26513672 -3.13037109 C25.49062928 -3.12502252 27.71592001 -3.1303166 29.94140625 -3.13671875 C31.34635461 -3.13605797 32.75130285 -3.1347768 34.15625 -3.1328125 C35.44337891 -3.13168457 36.73050781 -3.13055664 38.05664062 -3.12939453 C41 -3 41 -3 42 -2 C42.07205511 -0.31391034 42.08386068 1.37500659 42.0625 3.0625 C42.05347656 3.98160156 42.04445313 4.90070313 42.03515625 5.84765625 C42.02355469 6.55792969 42.01195312 7.26820313 42 8 C38.69005287 9.65497356 35.00877 9.10084335 31.375 9.0625 C30.17230469 9.05573242 30.17230469 9.05573242 28.9453125 9.04882812 C26.96350994 9.03703168 24.98174567 9.01909605 23 9 C22.67 9.99 22.34 10.98 22 12 C23.93166016 12.09087891 23.93166016 12.09087891 25.90234375 12.18359375 C27.58074159 12.26798247 29.25912636 12.3526313 30.9375 12.4375 C31.78763672 12.47681641 32.63777344 12.51613281 33.51367188 12.55664062 C34.32255859 12.59853516 35.13144531 12.64042969 35.96484375 12.68359375 C37.08814087 12.73858032 37.08814087 12.73858032 38.23413086 12.79467773 C40 13 40 13 41 14 C41.0979057 15.49738124 41.12974864 16.99942892 41.125 18.5 C41.12886719 19.72203125 41.12886719 19.72203125 41.1328125 20.96875 C41 23 41 23 40 24 C38.65984779 24.15582303 37.31241097 24.25044142 35.96484375 24.31640625 C35.15595703 24.35830078 34.34707031 24.40019531 33.51367188 24.44335938 C32.66353516 24.48267578 31.81339844 24.52199219 30.9375 24.5625 C30.08349609 24.60568359 29.22949219 24.64886719 28.34960938 24.69335938 C26.23327963 24.79976702 24.11666187 24.90041731 22 25 C22.01160156 25.91523438 22.02320313 26.83046875 22.03515625 27.7734375 C22.04417969 28.96195312 22.05320312 30.15046875 22.0625 31.375 C22.07410156 32.55835938 22.08570313 33.74171875 22.09765625 34.9609375 C22 38 22 38 21 40 C17.04 40 13.08 40 9 40 C9 34.72 9 29.44 9 24 C8.34 24 7.68 24 7 24 C6.86464844 24.58007812 6.72929687 25.16015625 6.58984375 25.7578125 C4.86232619 32.02652891 2.49516535 35.4911823 -3 39 C-8.9718227 42.05535115 -16.88051416 42.1013177 -23.30859375 40.3828125 C-28.72780761 37.99540055 -32.99721633 34.08736077 -36 29 C-38.259406 22.16599421 -39.12337044 14.6671946 -36 8 C-32.43944961 2.68460692 -28.41802372 -1.83831745 -22.125 -3.6328125 C-14.06002166 -5.02639332 -7.16490931 -4.11059628 0 0 Z M-22 10 C-24.54873908 14.21212669 -24.6981274 18.19621858 -24 23 C-21.77561281 27.27403857 -21.77561281 27.27403857 -18 30 C-14.268148 30.41465022 -12.48562474 30.297997 -9.25 28.3125 C-6.37862914 25.36136884 -5.03681398 23.26405982 -4.96875 19.078125 C-5.32409969 14.35197408 -6.30112788 11.21217842 -10 8 C-15.03373787 6.53563989 -17.91916574 6.61873733 -22 10 Z " fill="#FFFFFF" transform="translate(326,330)"/>
<path d="M0 0 C0.77915771 0.00202423 1.55831543 0.00404846 2.36108398 0.00613403 C3.15635498 0.00517731 3.95162598 0.00422058 4.77099609 0.00323486 C6.45564859 0.0025531 8.1403037 0.00440711 9.82495117 0.00857544 C12.41257595 0.01392378 15.00002714 0.00863034 17.58764648 0.00222778 C19.22045937 0.00288857 20.85327215 0.00416973 22.48608398 0.00613403 C23.2652417 0.0041098 24.04439941 0.00208557 24.84716797 0 C30.30863294 0.02399549 30.30863294 0.02399549 31.42358398 1.13894653 C31.52441162 3.57555099 31.56331002 5.98319354 31.55639648 8.42019653 C31.55735321 9.14887939 31.55830994 9.87756226 31.55929565 10.62832642 C31.55997734 12.17174363 31.55812386 13.7151637 31.55395508 15.25857544 C31.54860661 17.62892053 31.55390041 19.99907613 31.56030273 22.36941528 C31.55964195 23.86550945 31.55836078 25.36160351 31.55639648 26.85769653 C31.55842072 27.57123291 31.56044495 28.28476929 31.56253052 29.01992798 C31.5385359 34.02399462 31.5385359 34.02399462 30.42358398 35.13894653 C27.76902205 35.23990218 25.14103223 35.27865652 22.48608398 35.27175903 C21.29317749 35.27319412 21.29317749 35.27319412 20.07617188 35.2746582 C18.39151938 35.27533996 16.70686427 35.27348596 15.0222168 35.26931763 C12.43459202 35.26396929 9.84714083 35.26926272 7.25952148 35.27566528 C5.6267086 35.2750045 3.99389582 35.27372334 2.36108398 35.27175903 C1.58192627 35.27378326 0.80276855 35.2758075 0 35.27789307 C-5.46146497 35.25389758 -5.46146497 35.25389758 -6.57641602 34.13894653 C-6.67724365 31.70234208 -6.71614205 29.29469952 -6.70922852 26.85769653 C-6.71018524 26.12901367 -6.71114197 25.40033081 -6.71212769 24.64956665 C-6.71280937 23.10614943 -6.71095589 21.56272936 -6.70678711 20.01931763 C-6.70143864 17.64897254 -6.70673244 15.27881694 -6.71313477 12.90847778 C-6.71247398 11.41238361 -6.71119281 9.91628956 -6.70922852 8.42019653 C-6.71125275 7.70666016 -6.71327698 6.99312378 -6.71536255 6.25796509 C-6.68550203 0.03056799 -6.17869332 0.0271467 0 0 Z " fill="#FFFFFF" transform="translate(335.576416015625,277.8610534667969)"/>
<path d="M0 0 C0.72252457 -0.00095673 1.44504913 -0.00191345 2.18946838 -0.00289917 C3.71851692 -0.00358002 5.24756834 -0.00173236 6.77661133 0.00244141 C9.11611442 0.00778329 11.45542484 0.00249726 13.79492188 -0.00390625 C15.27994834 -0.0032453 16.76497469 -0.00196379 18.25 0 C19.30011513 -0.00303635 19.30011513 -0.00303635 20.3714447 -0.00613403 C23.42367408 0.00857709 25.7713555 0.15946225 28.69140625 1.1328125 C28.69140625 12.0228125 28.69140625 22.9128125 28.69140625 34.1328125 C23.90596869 36.04698753 21.50257637 36.37962261 16.4921875 36.36328125 C15.47779854 36.36259392 15.47779854 36.36259392 14.44291687 36.3618927 C13.02174105 36.35888545 11.60056807 36.35104518 10.17944336 36.33862305 C8.00037021 36.32028274 5.82172069 36.31811417 3.64257812 36.31835938 C-7.01317823 36.28052026 -7.01317823 36.28052026 -9.30859375 35.1328125 C-9.30859375 23.9128125 -9.30859375 12.6928125 -9.30859375 1.1328125 C-6.32447133 -0.35924871 -3.27121903 -0.00943127 0 0 Z " fill="#FFFFFF" transform="translate(338.30859375,222.8671875)"/>
<path d="M0 0 C1.51400391 0.01740234 1.51400391 0.01740234 3.05859375 0.03515625 C4.07050781 0.04417969 5.08242187 0.05320312 6.125 0.0625 C7.29869141 0.07990234 7.29869141 0.07990234 8.49609375 0.09765625 C10.62689066 4.35925007 9.54111692 10.50529327 9.49609375 15.09765625 C13.78609375 15.09765625 18.07609375 15.09765625 22.49609375 15.09765625 C22.48449219 14.09863281 22.47289063 13.09960938 22.4609375 12.0703125 C22.45191406 10.77996094 22.44289063 9.48960937 22.43359375 8.16015625 C22.42199219 6.87238281 22.41039063 5.58460938 22.3984375 4.2578125 C22.49609375 1.09765625 22.49609375 1.09765625 23.49609375 0.09765625 C25.32725258 -0.00085546 27.16229308 -0.03207004 28.99609375 -0.02734375 C29.99640625 -0.02992188 30.99671875 -0.0325 32.02734375 -0.03515625 C34.49609375 0.09765625 34.49609375 0.09765625 35.49609375 1.09765625 C35.59723075 4.11573688 35.63578284 7.11046138 35.62890625 10.12890625 C35.62986298 11.03515747 35.6308197 11.94140869 35.63180542 12.87512207 C35.63248728 14.79516672 35.63063257 16.71521366 35.62646484 18.63525391 C35.62111667 21.58501329 35.62640963 24.53462039 35.6328125 27.484375 C35.63215172 29.34505242 35.63087056 31.20572975 35.62890625 33.06640625 C35.63093048 33.95493286 35.63295471 34.84345947 35.63504028 35.75891113 C35.61104363 41.98270637 35.61104363 41.98270637 34.49609375 43.09765625 C32.66493492 43.19616796 30.82989442 43.22738254 28.99609375 43.22265625 C27.99578125 43.22523438 26.99546875 43.2278125 25.96484375 43.23046875 C23.49609375 43.09765625 23.49609375 43.09765625 22.49609375 42.09765625 C22.42295808 39.56716223 22.40361848 37.06460788 22.43359375 34.53515625 C22.43810547 33.82423828 22.44261719 33.11332031 22.44726562 32.38085938 C22.45908511 30.61975612 22.47702112 28.85869589 22.49609375 27.09765625 C16.06109375 27.59265625 16.06109375 27.59265625 9.49609375 28.09765625 C9.51671875 30.20140625 9.53734375 32.30515625 9.55859375 34.47265625 C9.62109375 40.84765625 9.62109375 40.84765625 8.49609375 43.09765625 C4.53609375 43.09765625 0.57609375 43.09765625 -3.50390625 43.09765625 C-3.52855199 37.13452459 -3.54674025 31.1714223 -3.55883789 25.20825195 C-3.56387903 23.17797327 -3.57071182 21.14769823 -3.5793457 19.11743164 C-3.59142092 16.20588278 -3.59713659 13.29438175 -3.6015625 10.3828125 C-3.60672379 9.46927505 -3.61188507 8.55573761 -3.61720276 7.61451721 C-3.61739793 5.44190198 -3.5660243 3.26938329 -3.50390625 1.09765625 C-2.50390625 0.09765625 -2.50390625 0.09765625 0 0 Z " fill="#FFFFFF" transform="translate(76.50390625,326.90234375)"/>
<path d="M0 0 C1.50046875 0.00386719 1.50046875 0.00386719 3.03125 0.0078125 C4.0315625 0.00523437 5.031875 0.00265625 6.0625 0 C8.53125 0.1328125 8.53125 0.1328125 9.53125 1.1328125 C9.60396741 3.48594805 9.61495868 5.84114918 9.59375 8.1953125 C9.58472656 9.48566406 9.57570313 10.77601563 9.56640625 12.10546875 C9.55480469 13.10449219 9.54320312 14.10351562 9.53125 15.1328125 C15.96625 14.6378125 15.96625 14.6378125 22.53125 14.1328125 C22.510625 12.1940625 22.49 10.2553125 22.46875 8.2578125 C22.40625 2.3828125 22.40625 2.3828125 23.53125 0.1328125 C25.34367052 0.10593971 27.15620233 0.08647535 28.96875 0.0703125 C29.97808594 0.05871094 30.98742187 0.04710937 32.02734375 0.03515625 C34.53125 0.1328125 34.53125 0.1328125 35.53125 1.1328125 C35.632387 4.15089313 35.67093909 7.14561763 35.6640625 10.1640625 C35.66501923 11.07031372 35.66597595 11.97656494 35.66696167 12.91027832 C35.66764353 14.83032297 35.66578882 16.75036991 35.66162109 18.67041016 C35.65627292 21.62016954 35.66156588 24.56977664 35.66796875 27.51953125 C35.66730797 29.38020867 35.66602681 31.240886 35.6640625 33.1015625 C35.66608673 33.99008911 35.66811096 34.87861572 35.67019653 35.79406738 C35.64619988 42.01786262 35.64619988 42.01786262 34.53125 43.1328125 C32.67837498 43.20507752 30.82291122 43.2166247 28.96875 43.1953125 C27.95683594 43.18628906 26.94492187 43.17726563 25.90234375 43.16796875 C24.72865234 43.15056641 24.72865234 43.15056641 23.53125 43.1328125 C21.40045309 38.87121868 22.48622683 32.72517548 22.53125 28.1328125 C18.24125 27.8028125 13.95125 27.4728125 9.53125 27.1328125 C9.54285156 28.20402344 9.55445313 29.27523438 9.56640625 30.37890625 C9.57578299 31.77603993 9.58488331 33.17317549 9.59375 34.5703125 C9.60212891 35.27736328 9.61050781 35.98441406 9.61914062 36.71289062 C9.62778588 38.51974809 9.58345011 40.32668853 9.53125 42.1328125 C8.53125 43.1328125 8.53125 43.1328125 6.0625 43.265625 C4.56203125 43.26175781 4.56203125 43.26175781 3.03125 43.2578125 C2.0309375 43.26039063 1.030625 43.26296875 0 43.265625 C-2.46875 43.1328125 -2.46875 43.1328125 -3.46875 42.1328125 C-3.569887 39.11473187 -3.60843909 36.12000737 -3.6015625 33.1015625 C-3.60251923 32.19531128 -3.60347595 31.28906006 -3.60446167 30.35534668 C-3.60514353 28.43530203 -3.60328882 26.51525509 -3.59912109 24.59521484 C-3.59377292 21.64545546 -3.59906588 18.69584836 -3.60546875 15.74609375 C-3.60480797 13.88541633 -3.60352681 12.024739 -3.6015625 10.1640625 C-3.60358673 9.27553589 -3.60561096 8.38700928 -3.60769653 7.47155762 C-3.57963147 0.19257511 -3.57963147 0.19257511 0 0 Z " fill="#FFFFFF" transform="translate(426.46875,326.8671875)"/>
<path d="M0 0 C-0.144375 0.825 -0.28875 1.65 -0.4375 2.5 C-0.7159375 4.2325 -0.7159375 4.2325 -1 6 C-1.23009766 6.99193359 -1.23009766 6.99193359 -1.46484375 8.00390625 C-1.99219554 10.35675755 -1.99219554 10.35675755 -2 14 C3.00371854 21.24676478 12.86782917 25.28927639 21 28 C20.505 30.475 20.505 30.475 20 33 C18.68 32.67 17.36 32.34 16 32 C16.33 32.99 16.66 33.98 17 35 C7.03871255 36.79303174 -3.83376416 36.58311792 -13 32 C-15 29 -15 29 -15 25 C-15.556875 25.556875 -16.11375 26.11375 -16.6875 26.6875 C-17.450625 27.450625 -18.21375 28.21375 -19 29 C-19.763125 29.78375 -20.52625 30.5675 -21.3125 31.375 C-33.9354537 43.70439663 -33.9354537 43.70439663 -41.4375 44.25 C-42.283125 44.1675 -43.12875 44.085 -44 44 C-42.50858226 40.38493308 -40.45400158 38.39741044 -37.5 35.875 C-34.17517551 33.01831048 -34.17517551 33.01831048 -31 30 C-31 28.68 -31 27.36 -31 26 C-30.01 25.34 -29.02 24.68 -28 24 C-27.67 23.01 -27.34 22.02 -27 21 C-27.94875 20.731875 -28.8975 20.46375 -29.875 20.1875 C-33 19 -33 19 -35 16 C-35.1953125 13.73828125 -35.1953125 13.73828125 -35.125 11.3125 C-35.10695313 10.50425781 -35.08890625 9.69601563 -35.0703125 8.86328125 C-35.04710937 8.24839844 -35.02390625 7.63351563 -35 7 C-32.09057463 5.17282465 -29.35672328 3.78719617 -26 3 C-23.18770055 3.7010009 -20.91490004 4.72493053 -18.359375 6.08203125 C-15.42729174 7.22282523 -13.95761405 6.9907519 -11 6 C-9.29319053 4.37446717 -7.62339805 2.70884005 -6 1 C-3 0 -3 0 0 0 Z " fill="#FFFFFF" transform="translate(568,123)"/>
<path d="M0 0 C1.50046875 0.00386719 1.50046875 0.00386719 3.03125 0.0078125 C4.0315625 0.00523437 5.031875 0.00265625 6.0625 0 C8.53125 0.1328125 8.53125 0.1328125 9.53125 1.1328125 C9.65318244 3.25417272 9.7110123 5.37927339 9.7421875 7.50390625 C9.77054688 8.80005859 9.79890625 10.09621094 9.828125 11.43164062 C9.86943591 13.50333344 9.90630683 15.57478776 9.93261719 17.64672852 C9.96016058 19.64101268 10.00714276 21.63499867 10.0546875 23.62890625 C10.07450684 24.82700928 10.09432617 26.0251123 10.11474609 27.25952148 C10.25219238 28.20770752 10.38963867 29.15589355 10.53125 30.1328125 C13.43710687 32.52079932 13.43710687 32.52079932 17.15625 31.8203125 C20.35629312 31.49168127 20.35629312 31.49168127 21.53125 30.1328125 C21.67763933 28.00035768 21.75870812 25.86335913 21.8125 23.7265625 C21.84988281 22.42589844 21.88726562 21.12523437 21.92578125 19.78515625 C21.9614894 18.4010558 21.99663871 17.01694082 22.03125 15.6328125 C22.09871935 12.93466899 22.17245873 10.23696381 22.25 7.5390625 C22.28029297 6.33572266 22.31058594 5.13238281 22.34179688 3.89257812 C22.53125 1.1328125 22.53125 1.1328125 23.53125 0.1328125 C25.36240883 0.03430079 27.19744933 0.00308621 29.03125 0.0078125 C30.0315625 0.00523437 31.031875 0.00265625 32.0625 0 C34.53125 0.1328125 34.53125 0.1328125 35.53125 1.1328125 C35.77456462 5.15635152 35.75983055 9.18358449 35.77148438 13.21386719 C35.78111209 15.22894817 35.81208261 17.24297463 35.84375 19.2578125 C35.87771821 27.69891257 35.69526769 33.28468287 30.21875 39.9453125 C24.32012363 44.74652001 17.85676892 44.79488564 10.53125 44.1328125 C4.62461123 42.48670006 0.69969314 39.34266867 -2.46875 34.1328125 C-3.46368067 30.24001716 -3.59759857 26.56278602 -3.6015625 22.5546875 C-3.60285156 21.31203125 -3.60414062 20.069375 -3.60546875 18.7890625 C-3.60160156 17.5 -3.59773438 16.2109375 -3.59375 14.8828125 C-3.59761719 13.57828125 -3.60148437 12.27375 -3.60546875 10.9296875 C-3.60417969 9.6921875 -3.60289063 8.4546875 -3.6015625 7.1796875 C-3.60043457 6.04370117 -3.59930664 4.90771484 -3.59814453 3.73730469 C-3.42819865 0.31658267 -3.40765436 0.18332318 0 0 Z " fill="#FFFFFF" transform="translate(117.46875,326.8671875)"/>
<path d="M0 0 C2.9593461 2.87936377 4.4902389 5.53798666 6.3125 9.25 C6.3125 10.24 6.3125 11.23 6.3125 12.25 C2.26576005 13.59891332 -1.46061362 13.94698658 -5.6875 13.25 C-8.3125 10.8125 -8.3125 10.8125 -10.6875 8.25 C-14.46799683 7.18880791 -16.53938497 6.64572893 -20.0625 8.5 C-23.19568679 11.87420116 -22.9725498 15.66858368 -22.89453125 20.0234375 C-22.59660056 23.2275978 -21.93511297 24.92988339 -19.6875 27.25 C-16.23039236 28.19284754 -13.83323242 28.59062315 -10.375 27.5625 C-8.25849595 26.1110844 -8.25849595 26.1110844 -6.6875 22.25 C-2.7275 22.25 1.2325 22.25 5.3125 22.25 C6.3125 26.25 6.3125 26.25 5.30859375 28.46875 C1.2219938 34.4501394 -2.29571015 38.76624656 -9.6875 40.25 C-17.76917163 41.1537013 -23.99379908 39.98633711 -30.6875 35.25 C-35.56874297 30.94167287 -36.7198689 25.52951594 -37.52734375 19.2421875 C-37.92583135 11.79727276 -35.97464859 6.65927972 -31.265625 0.91015625 C-22.82486249 -7.96935876 -9.37185109 -6.10260071 0 0 Z " fill="#FFFFFF" transform="translate(65.6875,330.75)"/>
<path d="M0 0 C3.45227509 3.17609308 6.15784031 6.67006391 8 11 C8 11.99 8 12.98 8 14 C4.53333014 15.73333493 0.78171287 15.61378586 -3 15 C-5.625 12.5625 -5.625 12.5625 -8 10 C-11.48690078 9.08239453 -13.84044182 8.65526649 -17.3125 9.6875 C-19.90661093 11.70514183 -20.8552768 13.94934715 -21.30078125 17.18359375 C-21.32553996 21.9455196 -21.13065084 25.14689128 -18 29 C-15.11138291 30.44430855 -13.20352299 30.37688506 -10 30 C-7.16588845 27.666508 -7.16588845 27.666508 -5 25 C-4 24 -4 24 -1.27734375 23.90234375 C-0.17519531 23.91394531 0.92695313 23.92554688 2.0625 23.9375 C3.71958984 23.95103516 3.71958984 23.95103516 5.41015625 23.96484375 C6.26480469 23.97644531 7.11945313 23.98804688 8 24 C7.40957946 30.19941562 5.11786993 34.04504314 0.5625 38.25 C-5.67028579 42.50653664 -11.63418411 42.7566963 -19 42 C-25.18595462 40.28110745 -29.52843784 36.31790255 -33 31 C-36.16699165 24.49188657 -36.16048791 16.99963507 -34.16015625 10.10546875 C-31.4874346 4.10309387 -28.05341706 0.58744467 -22 -2 C-14.87507167 -4.21315409 -6.44384613 -3.95480685 0 0 Z " fill="#FFFFFF" transform="translate(414,329)"/>
<path d="M0 0 C4.86551641 0.8950652 7.23580961 3.7206793 10.625 7.125 C11.21023438 7.681875 11.79546875 8.23875 12.3984375 8.8125 C16.28082738 12.67708075 17.94471978 15.61395942 19 21 C19.53625 20.505 20.0725 20.01 20.625 19.5 C23.59358445 17.62510456 25.55312427 17.76498575 29 18 C28.73445312 18.59167969 28.46890625 19.18335937 28.1953125 19.79296875 C27.66550781 20.97826172 27.66550781 20.97826172 27.125 22.1875 C26.75503906 23.00992188 26.38507812 23.83234375 26.00390625 24.6796875 C24.93704357 27.05374112 24.93704357 27.05374112 24.0625 29.8125 C21.14503881 35.81903775 13.78275494 38.3634558 8 41 C6.515 41.495 6.515 41.495 5 42 C5 42.66 5 43.32 5 44 C3.68 44.66 2.36 45.32 1 46 C2.77945087 41.95579349 5.39529673 38.53921513 8 35 C7.06027344 34.81824219 7.06027344 34.81824219 6.1015625 34.6328125 C5.28429687 34.46523437 4.46703125 34.29765625 3.625 34.125 C2.81289063 33.96257812 2.00078125 33.80015625 1.1640625 33.6328125 C-1 33 -1 33 -3 31 C-2.8359375 29.1875 -2.8359375 29.1875 -2.375 27 C-1.78039909 22.93580478 -2.35102849 20.59361252 -4.0625 16.875 C-5.66757124 13.29274758 -6.03083772 12.23513761 -5.5 8.1875 C-4.00168771 5.00358639 -2.36187209 2.5980593 0 0 Z " fill="#FFFFFF" transform="translate(530,78)"/>
<path d="M0 0 C8.61166353 3.92959404 15.36768485 8.51554909 20 17 C21.7590275 22.0457917 22.27125923 26.48174801 22.25 31.8125 C22.25773437 33.77123047 22.25773437 33.77123047 22.265625 35.76953125 C22 39 22 39 20 41 C18.33397218 39.33397218 18.51693247 37.09389684 18.1875 34.8125 C17.31310516 29.99708271 16.51070176 26.60071976 13 23 C7.27967952 19.9423928 2.23341491 19.44164627 -4 21 C-6.82865928 22.9445527 -6.82865928 22.9445527 -9 25 C-9.66 25 -10.32 25 -11 25 C-10.92526871 21.86128588 -10.61787334 19.70730238 -8.515625 17.30078125 C-5.43601016 14.58308696 -3.0999332 12.76930314 1 12 C1.19622241 7.78121808 0.80230168 4.82989106 -1 1 C-0.67 0.67 -0.34 0.34 0 0 Z " fill="#FFFFFF" transform="translate(122,240)"/>
<path d="M0 0 C2.4375 2.125 2.4375 2.125 4 5 C4 8.8137751 3.84985071 11.02424548 1.3125 13.9375 C-1.7864448 15.3613395 -3.62182812 15.55153827 -7 15 C-10.36344489 12.51397551 -11.80057749 11.08574477 -12.5625 6.9375 C-11.88178485 3.38265419 -10.79927541 2.222954 -8 0 C-4.99733781 -1.5013311 -3.18669322 -0.8922741 0 0 Z " fill="#FFFFFF" transform="translate(139,204)"/>
<path d="M0 0 C3.48170548 0.29014212 4.74228955 0.72756324 7.1875 3.3125 C10.51522023 8.24670586 11.23436559 10.90649463 11 17 C8.24419414 15.62209707 7.51138754 13.62850007 6 11 C4.96593327 9.74050951 4.96593327 9.74050951 2.71484375 9.90234375 C1.79832031 9.91394531 0.88179687 9.92554688 -0.0625 9.9375 C-0.98160156 9.94652344 -1.90070313 9.95554687 -2.84765625 9.96484375 C-3.55792969 9.97644531 -4.26820312 9.98804688 -5 10 C-4.47792969 9.07960938 -4.47792969 9.07960938 -3.9453125 8.140625 C-3.63335937 7.43421875 -3.32140625 6.7278125 -3 6 C-3.78309467 3.76529595 -3.78309467 3.76529595 -5 2 C-3.68 1.67 -2.36 1.34 -1 1 C-1.33 2.32 -1.66 3.64 -2 5 C-1.34 5 -0.68 5 0 5 C0 3.35 0 1.7 0 0 Z " fill="#FFFFFF" transform="translate(128,263)"/>
<path d="M0 0 C1.98 0 3.96 0 6 0 C6.625 2.375 6.625 2.375 7 5 C6.34 5.66 5.68 6.32 5 7 C2.375 6.625 2.375 6.625 0 6 C-1.125 2.25 -1.125 2.25 0 0 Z " fill="#FFFFFF" transform="translate(113,244)"/>
</svg>
